<svg id="symbol" xmlns="http://www.w3.org/2000/svg" xmlns:xlink="http://www.w3.org/1999/xlink" viewBox="0 0 100 100"><defs><style>.cls-1{fill:#b3b3b3;}.cls-2{fill:#e6e6e6;}.cls-3{fill:#999;}.cls-3,.cls-4{opacity:0.14;}.cls-10,.cls-4,.cls-5,.cls-7,.cls-8{fill:#595959;}.cls-5{opacity:0.16;}.cls-6,.cls-7{opacity:0.18;}.cls-10,.cls-9{opacity:0.2;}.cls-11{fill:#0062bf;}.cls-12{fill:#fff6c4;}.cls-13{fill:#ffee8d;}.cls-14{fill:#ffaf22;}</style><symbol id="sun" data-name="sun" viewBox="0 0 90 90"><circle class="cls-12" cx="45" cy="45" r="45"/><circle class="cls-13" cx="45" cy="45" r="39"/><path class="cls-14" d="M45,12.5A32.5,32.5,0,1,0,77.5,45,32.54,32.54,0,0,0,45,12.5Z"/></symbol><symbol id="cloud3_2" data-name="cloud3 2" viewBox="0 0 89.34 45.68"><g id="_Group_" data-name="&lt;Group&gt;"><g id="New_Symbol" data-name="New Symbol"><g id="cloud1_3" data-name="cloud1 3"><g id="_Group_2" data-name="&lt;Group&gt;"><path id="_Path_" data-name="&lt;Path&gt;" class="cls-1" d="M87.34,26.81C86.57,26,87,25.51,86.7,24.92a2.81,2.81,0,0,0-1.62-1.31c-0.81-.42-1.5-0.17-2.3-0.43-1.33-.43-1.45-2.9-2.65-3.77-1.55-1.12-.49-3.08-2-4.32-0.76-.63-1.26-0.33-2.06-0.5a12.41,12.41,0,0,1-2.5-1.21c-1.48-.7-1.06-1.9-2.08-4a10.68,10.68,0,0,0-4-3.84,11.28,11.28,0,0,0-1.8-.71c-0.65-.25-0.55-0.72-0.94-1.17a2.94,2.94,0,0,0-3.61-.84c-0.62.29-.89,1-1.47,1.34A1.82,1.82,0,0,1,57.88,4C51.23-1.62,43-1.11,41.67,4.18c-1.75,1.39-3.89,2.15-4.57,6.55a2.05,2.05,0,0,0-2.74.23,3.84,3.84,0,0,0-2.26-.23,3.73,3.73,0,0,0-3,3.1c-0.09.61,0.08,1.28-.25,1.53a1.58,1.58,0,0,1-1.74.19A2.2,2.2,0,0,0,25,15.3a2.41,2.41,0,0,1-2.28-.12c-0.63-.39-1.72-1-4.13-0.46-1.46.32-3,.45-3.73,1.94-1.55,3.11-1.89,1.76-3.57,3.53-0.44.47-.71,1.58-1.31,1.81a5,5,0,0,0-1.6.65c-0.61.47-1.52,0.1-2.14,0.55C6,23.42,6.13,23.52,5.58,24s-1,.75-1.4,1.15A6.53,6.53,0,0,0,2.51,27.3a5.2,5.2,0,0,1-1,2.12c-0.7.63-.37,1-0.72,1.76-0.16.33-.54,0.4-0.68,0.75A4.31,4.31,0,0,0,0,33.51c0.1,4.37,2.14,6.95,2.74,7.24s0.57,1,1.12,1.27c0.31,0.15.66,0,1,.19a7.58,7.58,0,0,1,.92.81,3.09,3.09,0,0,0,2.49.31c1.17-.12,1.9.5,3,0.8a32.31,32.31,0,0,0,6.79,1c20,0.72,43.18.87,62.3-.25a8.55,8.55,0,0,0,5.41-2.21c0.75-.64,2.48-2,3.41-6.21S87.75,27.22,87.34,26.81Z"/><path id="_Path_2" data-name="&lt;Path&gt;" class="cls-2" d="M89.33,34.65c0,0.08,0,.17,0,0.25C89.33,34.82,89.33,34.73,89.33,34.65Z"/><path id="_Path_3" data-name="&lt;Path&gt;" class="cls-2" d="M89.33,33.93c0,0.06,0,.13,0,0.19S89.33,34,89.33,33.93Z"/><path id="_Path_4" data-name="&lt;Path&gt;" class="cls-3" d="M89.34,34.12c0,0.18,0,.35,0,0.53C89.33,34.47,89.34,34.3,89.34,34.12Z"/><path id="_Path_5" data-name="&lt;Path&gt;" class="cls-4" d="M89.32,33.81c0-.4-0.05-0.8-0.1-1.19V32.48c-0.06-.41-0.13-0.81-0.21-1.2l0-.1c-0.7-1.07-3.84.94-4.46-1.32-1.08-3.68-2.09-4.12-4.58-4.83-0.82-.26-0.77.78-1.12,1.1a2.25,2.25,0,0,1-2,.47c-1.45-.36-3.38-2.29-4.82-2.57-3.87-.76-2.1,1-4.32.4a7.24,7.24,0,0,1-2.11-1.78c-2.13-2.34-.58-4.27-3.38-5.75-1.94-.5-1.41,1-5.54-1.82-5.36-3.69-9.91,1.85-9.6,3.51,5.35-5,8.23-2,9.56-1.18,1.95,1.14,4.36,2.5,3.47,4.52-1,2.18.15,3.19-.31,3.75s-0.46,2.5-1.13,2.22c-1.78-.76-1.18,1.95-3.3,1.52-0.82-.16-1.75,1-2.54,1.35S51.07,30,50.36,30.5s-1.46.3-2,.82-0.49-.82-0.57-0.92c-0.33-.4-0.86.12-1.22-0.25-0.53-.55.09-1-1-1.15a2.87,2.87,0,0,0-1.86.19c-0.4.32,0.1,1-.25,1.37-0.44-.53-1.34-0.24-1.87-0.6a0.94,0.94,0,0,0-.27-1.39c-0.72-.44-0.54.7-1.1,0.73-0.77,0-.54.31-0.51,1s-0.74.95-1,1.4c-0.59,1.1-1.16,2.24-2.68,1.29a3.73,3.73,0,0,1-.91-1.5c-0.46-.8-0.15-1.33-0.2-2.17s-0.83-.58-1.37-0.78a2.61,2.61,0,0,1-1.67-1.27c-0.46-1-2.5-1.12-3.23-.32-0.87,1-.64,2.69-1.31,3.81a1.84,1.84,0,0,1-1.71,1,8.68,8.68,0,0,1-2,0c-0.69-1-1.21,1.14-2.08,0-1-1.31-2-.44-2.59.79-0.88,1.71-2.93,5.24-4.48,4.17-0.95-.65-1.69,5.24-8.8,2.28C2.18,37.64.92,36.26,0.49,36.77c0.08,0.28.16,0.57,0.25,0.82l0.08,0.2q0.15,0.38.3,0.72l0,0.06,0.13,0.26c0.1,0.19.2,0.37,0.29,0.53l0.16,0.25c0.1,0.15.2,0.3,0.29,0.42l0.11,0.14a4.09,4.09,0,0,0,.31.35l0,0a1.3,1.3,0,0,0,.27.2l0.09,0.06L3,40.89,3.06,41l0,0a3.7,3.7,0,0,1,.29.46l0.07,0.11,0.06,0.09,0.1,0.11,0.06,0.06a0.83,0.83,0,0,0,.2.14c0.31,0.15.66,0,1,.19h0a6.76,6.76,0,0,1,.86.76l0,0h0a1.73,1.73,0,0,0,.24.16L6.23,43.3h0c0.45,0.49,1.41.15,2.09,0h0a2.93,2.93,0,0,1,.49,0h0L9.19,43.4h0a6.73,6.73,0,0,1,1.09.39l0.13,0.05,0.07,0L10.73,44l0.47,0.16c0.29,0.08.61,0.16,0.94,0.24l0.32,0.07,0.21,0h0a35.93,35.93,0,0,0,4,.55h0.15L18,45.11l4.42,0.15,1.28,0,3.37,0.09,1.3,0,4.08,0.09h0.48c3.26,0.06,6.55.11,9.85,0.13h0.59l4.64,0h0.26c3.39,0,6.78,0,10.13-.07h0l5.37-.1h0.42l5.34-.15h0.28l4.53-.18,1.2-.05,4.64-.24h0.1a9.76,9.76,0,0,0,1-.12l0.17,0a9.15,9.15,0,0,0,.89-0.21h0a8.15,8.15,0,0,0,1.71-.73l0.13-.08c0.19-.12.38-0.24,0.56-0.37l0.21-.15,0.5-.39,0.14-.11a11,11,0,0,0,.82-0.76l0.16-.17,0.1-.11c0.11-.13.23-0.28,0.35-0.44L87.27,41l0.1-.14,0.16-.25,0.09-.14,0.17-.3L87.86,40,88,39.69l0.06-.13,0.18-.41,0-.1c0.07-.16.13-0.32,0.19-0.49l0-.05a16.55,16.55,0,0,0,.58-2,9.59,9.59,0,0,0,.21-1.61h0C89.34,34.49,89.33,34.15,89.32,33.81Z"/><path id="_Compound_Path_" data-name="&lt;Compound Path&gt;" class="cls-5" d="M89.29,33.27c0,0.6-3.54.75-4.2,0.25s-0.15-.58-0.6-1.19-0.69.63-1.08,0c-0.25-.38.17-2.14-0.35-1.84s-0.52-1.94-1.27-1.65c-0.48.18-1.7-.34-2.22-0.44-0.77-.15-2.26,1.56-3,1.3-0.4-.14-2.06-1.8-3-1.78-1.21,0-2-2.42-3.17-2.32s-1.27,1.87-2.85,1c-1.15-.62-5-7-6-7.15a4.67,4.67,0,0,1-.68,3.81c0.21,2.12,1.35,3.87.62,4.11-1.23.4,0.38,3.95-.57,3.27-0.55-.39-1.57-1.35-2.27-1.35s-0.85,1.06-.39,1.54,1.3,1.42-.05,1.73c-1.2.28-1.56-.69-2-1.57s-0.63.46-1.33,1.07c-2.45,2.11-3.52.77-4.23,0.93-1,.22-2.33.42-3.21,0.6s-1.62-.87-2.49-0.94a0.54,0.54,0,0,1-.3.34,0.77,0.77,0,0,1-.32-0.49c-0.87-.57-2.06-1.28-3.15-1s-0.83,1.75-2.05,2c-0.82.19-2.49,0.65-3.27,0.36-1.09-.41-1-2.06-1.64-2.85,0.27-.62-1-0.42-1.23-0.41-0.72-.09-1.88-0.8-2,0.43a3,3,0,0,1-.14,1.05,3.29,3.29,0,0,0-.67,1.26c-0.1,2.12-4,1.07-5.11.36a1.78,1.78,0,0,0-2.15-.2c-0.69.35-1.7,0.14-2.26,0.7s-0.55,1.21-1.61,1.05c-0.53-.08,0-0.46-0.58-0.47s-1.28,2.81-1.61,2.28c-0.16-.27-1.74.71-2,0.72-1.52,0-2.2,3.55-6.26,2.79-4.31-1.44-7-2.41-7.27-2a0.45,0.45,0,0,0,0,.38l0.17,0.3a4.13,4.13,0,0,0,1.19,1.42h0a1.36,1.36,0,0,1,.54.6,1.43,1.43,0,0,0,.52.62l0,0c0.31,0.15.66,0,1,.19a7.58,7.58,0,0,1,.92.81,3.09,3.09,0,0,0,2.49.31c1.17-.12,1.9.5,3,0.8a24.76,24.76,0,0,0,3.24.65,35.54,35.54,0,0,0,3.54.33c8.3,0.3,17.17.5,26.07,0.55h0.28c4.34,0,8.69,0,13,0,8-.1,15.76-0.34,23-0.76A8.7,8.7,0,0,0,83.63,44a9.42,9.42,0,0,0,2.06-1.37l0.18-.15c0.82-.7,2.37-2.14,3.23-6.06a9.64,9.64,0,0,0,.23-1.83C89.34,34.17,89.32,33.75,89.29,33.27Zm-6.56-2.09h0Z"/><g id="_Group_3" data-name="&lt;Group&gt;" class="cls-6"><path id="_Path_6" data-name="&lt;Path&gt;" class="cls-7" d="M38,45.67h0Z"/><path id="_Path_7" data-name="&lt;Path&gt;" class="cls-8" d="M88,34.47c-0.24-1.3-2.9-.74-3-1-0.41-.67-0.89-1.11-2.85.22-1-1.78-.52-3.4-1-2.73-1,1.51-1.6-.74-2.41-0.38-1.3.57-3.7-.66-3.74-0.19-0.16,1.72-.86-0.67-1.9-2.06s-1.58,1.31-3.24,1.27c-0.87,0,1-2.32-1.14-1.93C66,29.72,64,24.45,64.6,26c0.35,0.92-1.16,5.4-1.4,5.14-0.92-1,.48,2.85-0.83,2.19-0.51-.26-0.89.08-1.4-0.23-0.28-.17-0.6-0.58-0.9-0.14s0.06,1.8-.82,1.72a9.06,9.06,0,0,1-1.11-.54c-0.88-.18-0.44,1.31-0.68,1.61-0.73.88-3-.49-3.43-0.16-1.89,1.38-1.65,0-2.76-.32-0.47-.14-0.93.05-1.39-0.07a6.89,6.89,0,0,0-2.57-.52c0.49-.57-1.12-0.92-1.52-1.15-0.6-.35-1,0.25-1.57.12A1.8,1.8,0,0,1,43.58,33a2.66,2.66,0,0,0-1.28-.59c-1.59-.31-1.67,1.53-2.79,2.29-1.28.88-2.74,1.53-3.93,0.19-0.65-.74-1.35-2.72-2.54-2.65-2,.11-0.26,1.77-0.87,2.08A3.76,3.76,0,0,0,31,35.3c-0.62.67-1.25,0.26-1.95,0s-1.16.22-1.86,0.19a5.26,5.26,0,0,1-.54-0.4,3.06,3.06,0,0,1-1.1-.21C25,34.55,24.66,33.94,24,34a4.92,4.92,0,0,0-1.92.7c-0.51.31-.9,0.79-1.4,1.12a3.81,3.81,0,0,1-2.34.3c-1.07,2.73-4.16,2.61-3.86,3.11,0.39,0.66-2.29,1.91-4.74,2-2.1.1-4-.89-4.36-0.72-1.45.65-.18,1.6,0.89,2.71a0.5,0.5,0,0,0,.21.13h0a5.33,5.33,0,0,0,1.77,0,5.71,5.71,0,0,1,2.68.71,6.59,6.59,0,0,0,1.34.37l0.32,0.05a35.44,35.44,0,0,0,5.41.65c13.25,0.48,28,.7,41.93.47,7.06-.12,13.95-0.35,20.37-0.72a8.64,8.64,0,0,0,3.53-.92,9.13,9.13,0,0,0,1.5-1l0.38-.31c0.75-.64,2.48-2,3.41-6.21h0C88.82,36.39,88.28,36,88,34.47Z"/></g><path id="_Path_8" data-name="&lt;Path&gt;" class="cls-4" d="M59.2,7.25c0.46-2,1.08-3.57,3.05-4.71a3.12,3.12,0,0,0-1,.29c-0.62.29-.89,1-1.47,1.34A1.82,1.82,0,0,1,57.91,4a19.1,19.1,0,0,0-2-1.45C57.5,6.5,58.41,4.5,59.2,7.25Z"/><path id="_Path_9" data-name="&lt;Path&gt;" class="cls-4" d="M21.75,15.4c2.69,1.48,2.8,0,4.72.56,1.6,0.48,1.88-.15,3.46.33a9.74,9.74,0,0,1,6,4.78c-0.21-.83-1.06-4.14-3.51-5.07-2.94-1.11-2.34-1.65-3.26-2.18v0s0,0.09,0,.14a4,4,0,0,1,0,.58,1,1,0,0,1-.22.81,1.58,1.58,0,0,1-1.74.19A2.2,2.2,0,0,0,25,15.3a2.41,2.41,0,0,1-2.28-.12c-0.63-.39-1.72-1-4.13-0.46-1.46.32-3,.45-3.73,1.94a11.63,11.63,0,0,1-.65,1.16A7.85,7.85,0,0,1,21.75,15.4Z"/><path id="_Path_10" data-name="&lt;Path&gt;" class="cls-5" d="M33.34,18a3.68,3.68,0,0,0-2.27-2.4,13.24,13.24,0,0,1-2-1.48,1.71,1.71,0,0,1-.23,1.23,1.46,1.46,0,0,1-1,.36C26.32,15.77,29.87,15.37,33.34,18Z"/><g id="_Group_4" data-name="&lt;Group&gt;" class="cls-9"><path id="_Path_11" data-name="&lt;Path&gt;" class="cls-8" d="M88.6,37.81c-1.73-3.34-2.18-1.77-2.88-1.69-1.24.15-.13,1-1.71,0.25-2.5-1.18-.63,2.73-3.45-0.85-0.47,2.07-.85-2.94-1.37-2.07a5.5,5.5,0,0,1-2.39,2c-2.71,1.31,1.48-3.26-4.23-2.11,0,0-4.55-4.5-2.92-.13,0.77,2.07-1.25-3.11-4.1-3.68-0.82,1.4.2,2.19-.7,2.79-0.63.42,0,4-2.09,2.79C61.85,34.57,62,36.23,61,37.26c-2.16-1.52-3.13.44-3.94,1.06C55,40,52,38.66,51.32,39.81,51.42,38.9,49.4,37,48.75,37c-0.8-.07-1.6.31-2.38,0a18,18,0,0,1-2.77-.74c-1.51-.81-2.68.79-4,1.41-0.71.33-1.47,1-2.31,0.73s-1.11-1.18-1.84-1.53a1.36,1.36,0,0,1-.26.06c-0.44.27-.24-0.08-0.56-0.17a2.63,2.63,0,0,0-2.15.95c-0.64.65-.62,1.07-1.56,1.36s-1.66-.2-2.52-0.36-1.22-1-2.1-.3c-0.59.47-.92,0.81-1.65,0.3-1-.69-1.35-0.41-2.47-0.16a11.09,11.09,0,0,1-3.57-.26c-1-.14-0.64,2.15-1.69,2.06s-2.29,2-3.3,2.16c-1.65.3-2.79-.13-3.38,0.38-0.94.81-3.92-1.27-3.72,0.25a2,2,0,0,0,.23.28,7.08,7.08,0,0,0,1.52-.09c1.17-.12,1.9.5,3,0.8a32.31,32.31,0,0,0,6.79,1c20,0.72,43.18.87,62.3-.25a8.55,8.55,0,0,0,5.41-2.21,9,9,0,0,0,3.05-4.83Z"/><path id="_Path_12" data-name="&lt;Path&gt;" class="cls-10" d="M35.44,36.89c-0.09-.07-0.36-0.17,0,0h0Z"/></g></g></g></g></g></symbol><symbol id="cloud3" data-name="cloud3" viewBox="0 0 90.39 46.21"><use id="cloud3_2-3" data-name="cloud3 2" width="89.34" height="45.68" transform="scale(1.01)" xlink:href="#cloud3_2"/></symbol><symbol id="raindrop" data-name="raindrop" viewBox="0 0 8 13"><path class="cls-11" d="M1.92,13a1.89,1.89,0,0,1-.8-0.18,1.94,1.94,0,0,1-.94-2.57L4.34,1.13A1.91,1.91,0,0,1,6.88.18a1.94,1.94,0,0,1,.94,2.57L3.66,11.87A1.92,1.92,0,0,1,1.92,13Z"/></symbol></defs><title>symbols</title><use id="sun-3" data-name="sun" width="90" height="90" transform="scale(0.67)" xlink:href="#sun"/><use id="cloud3-3" data-name="cloud3" width="90.39" height="46.21" transform="translate(5 27)" xlink:href="#cloud3"/><use id="raindrop-3" data-name="raindrop" width="8" height="13" transform="translate(32 78)" xlink:href="#raindrop"/><use id="raindrop-6" data-name="raindrop" width="8" height="13" transform="translate(45 87)" xlink:href="#raindrop"/><use width="8" height="13" transform="translate(60 78)" xlink:href="#raindrop"/></svg>