<svg id="symbol" xmlns="http://www.w3.org/2000/svg" xmlns:xlink="http://www.w3.org/1999/xlink" viewBox="0 0 100 100"><defs><style>.cls-1,.cls-2{fill:#ffee8a;}.cls-1{opacity:0.5;}.cls-2{opacity:0.95;}.cls-3{fill:#fbbe40;stroke:#f5b93f;stroke-miterlimit:10;stroke-width:2px;}.cls-4{fill:#333;}</style><symbol id="sun-winter" data-name="sun-winter" viewBox="0 0 90 42.3"><path class="cls-1" d="M85.5,1.8a40.5,40.5,0,1,1-81,0h81Z"/><path class="cls-2" d="M79,1.8a34,34,0,1,1-68,0H79Z"/><path class="cls-3" d="M73.35,1.8a28.35,28.35,0,0,1-56.7,0h56.7Z"/><path class="cls-4" d="M88.29,2.7H1.71A1.56,1.56,0,0,1,0,1.35,1.56,1.56,0,0,1,1.71,0H88.29A1.56,1.56,0,0,1,90,1.35,1.56,1.56,0,0,1,88.29,2.7Z"/></symbol></defs><title>symbols</title><use id="sun-winter-3" data-name="sun-winter" width="90" height="42.3" transform="translate(5 37)" xlink:href="#sun-winter"/></svg>