<svg id="symbol" xmlns="http://www.w3.org/2000/svg" xmlns:xlink="http://www.w3.org/1999/xlink" viewBox="0 0 100 100"><defs><style>.cls-1{fill:#e6e6e6;}.cls-2,.cls-3,.cls-4,.cls-6{fill:#999;}.cls-2{opacity:0.14;}.cls-3,.cls-5{opacity:0.2;}.cls-4{opacity:0.16;}.cls-7,.cls-8{opacity:0.18;}.cls-8,.cls-9{fill:#a4a4a4;}.cls-10{fill:#acacac;}</style><symbol id="fog" data-name="fog" viewBox="0 0 90 19"><path class="cls-10" d="M88.68,3H14.32A1.42,1.42,0,0,1,13,1.5,1.42,1.42,0,0,1,14.32,0H88.68A1.42,1.42,0,0,1,90,1.5,1.42,1.42,0,0,1,88.68,3Z"/><path class="cls-10" d="M75.68,11H1.32A1.42,1.42,0,0,1,0,9.5,1.42,1.42,0,0,1,1.32,8H75.68A1.42,1.42,0,0,1,77,9.5,1.42,1.42,0,0,1,75.68,11Z"/><path class="cls-10" d="M86.68,19H12.32a1.51,1.51,0,0,1,0-3H86.68A1.51,1.51,0,0,1,86.68,19Z"/></symbol><symbol id="cloud1_3" data-name="cloud1 3" viewBox="0 0 90 46.02"><g id="_Group_" data-name="&lt;Group&gt;"><path id="_Path_" data-name="&lt;Path&gt;" class="cls-1" d="M88,27c-0.77-.76-0.37-1.3-0.64-1.9a2.83,2.83,0,0,0-1.63-1.32c-0.82-.42-1.51-0.17-2.31-0.43-1.34-.43-1.46-2.92-2.67-3.79-1.56-1.13-.49-3.11-2-4.35-0.77-.64-1.27-0.34-2.08-0.5a12.5,12.5,0,0,1-2.51-1.22c-1.49-.71-1.07-1.91-2.09-4a10.76,10.76,0,0,0-4-3.87,11.37,11.37,0,0,0-1.81-.71c-0.66-.25-0.56-0.73-1-1.18a3,3,0,0,0-3.64-.85c-0.62.29-.9,1-1.48,1.35A1.83,1.83,0,0,1,58.31,4c-6.7-5.67-15-5.16-16.33.17-1.76,1.4-3.92,2.17-4.6,6.6a2.07,2.07,0,0,0-2.76.23,3.86,3.86,0,0,0-2.28-.23,3.76,3.76,0,0,0-3,3.13c-0.09.62,0.08,1.29-.26,1.54a1.59,1.59,0,0,1-1.75.19,2.22,2.22,0,0,0-2.1-.26,2.43,2.43,0,0,1-2.29-.12c-0.63-.39-1.73-1-4.16-0.46-1.47.32-3,.46-3.76,2-1.57,3.14-1.91,1.77-3.59,3.55-0.44.47-.71,1.59-1.32,1.82a5,5,0,0,0-1.61.65c-0.61.48-1.53,0.1-2.15,0.56-0.29.22-.15,0.31-0.7,0.79s-1,.75-1.41,1.16A6.58,6.58,0,0,0,2.53,27.5a5.24,5.24,0,0,1-1,2.13c-0.7.63-.37,1-0.73,1.78-0.16.33-.55,0.41-0.69,0.76A4.34,4.34,0,0,0,0,33.76c0.1,4.41,2.15,7,2.76,7.3s0.58,1,1.13,1.28c0.31,0.15.66,0,1,.19a7.63,7.63,0,0,1,.93.82,3.11,3.11,0,0,0,2.51.32c1.18-.12,1.92.5,3,0.81a32.55,32.55,0,0,0,6.84,1c20.1,0.72,43.5.88,62.76-.25A8.62,8.62,0,0,0,86.34,43c0.75-.65,2.5-2,3.44-6.26S88.4,27.42,88,27Z"/><path id="_Path_2" data-name="&lt;Path&gt;" class="cls-1" d="M90,34.9c0,0.09,0,.17,0,0.25C90,35.07,90,35,90,34.9Z"/><path id="_Path_3" data-name="&lt;Path&gt;" class="cls-1" d="M90,34.18c0,0.06,0,.13,0,0.19S90,34.24,90,34.18Z"/><path id="_Path_4" data-name="&lt;Path&gt;" class="cls-2" d="M90,34.37c0,0.18,0,.36,0,0.53C90,34.73,90,34.55,90,34.37Z"/><path id="_Path_5" data-name="&lt;Path&gt;" class="cls-3" d="M90,34.06c0-.41-0.05-0.81-0.1-1.2V32.72c-0.06-.41-0.13-0.82-0.22-1.21l0-.1c-0.7-1.08-3.87,1-4.5-1.33C84,26.37,83,25.92,80.52,25.21c-0.83-.27-0.77.79-1.13,1.1a2.27,2.27,0,0,1-2.06.47c-1.46-.36-3.41-2.31-4.85-2.59-3.9-.77-2.12,1-4.35.4A7.29,7.29,0,0,1,66,22.81c-2.14-2.36-.58-4.3-3.41-5.79-2-.5-1.42,1-5.58-1.83-5.4-3.71-10,1.86-9.67,3.54,5.39-5,8.29-2,9.63-1.19,2,1.15,4.39,2.51,3.49,4.56-1,2.2.15,3.21-.31,3.77S59.68,28.38,59,28.09c-1.79-.77-1.19,2-3.32,1.53-0.83-.17-1.76,1-2.56,1.36s-1.68-.72-2.4-0.26-1.47.3-2,.83-0.49-.83-0.57-0.93c-0.33-.4-0.86.12-1.23-0.26-0.54-.55.1-1-1-1.16a2.89,2.89,0,0,0-1.87.19c-0.4.32,0.1,1-.25,1.38-0.44-.53-1.35-0.24-1.89-0.61a0.94,0.94,0,0,0-.27-1.4c-0.72-.44-0.54.71-1.1,0.73-0.77,0-.55.31-0.51,1s-0.74,1-1,1.41c-0.59,1.11-1.17,2.26-2.7,1.3a3.76,3.76,0,0,1-.92-1.51c-0.46-.81-0.16-1.34-0.2-2.18s-0.84-.59-1.38-0.78a2.63,2.63,0,0,1-1.68-1.27c-0.47-1-2.52-1.13-3.25-.32-0.88,1-.64,2.71-1.32,3.84A1.86,1.86,0,0,1,25.87,32a8.74,8.74,0,0,1-2,0c-0.69-1-1.22,1.15-2.1,0-1-1.32-2-.44-2.61.8-0.89,1.72-2.95,5.27-4.52,4.2-1-.65-1.7,5.28-8.86,2.3C2.2,37.92.93,36.53,0.5,37c0.08,0.29.16,0.57,0.25,0.83l0.08,0.2Q1,38.46,1.14,38.8l0,0.06L1.3,39.12c0.1,0.19.2,0.37,0.3,0.54l0.16,0.25c0.1,0.15.2,0.3,0.3,0.43l0.11,0.14a4.12,4.12,0,0,0,.31.35l0,0a1.31,1.31,0,0,0,.27.2l0.09,0.06L3,41.19l0.11,0.12,0,0a3.73,3.73,0,0,1,.29.47l0.07,0.11L3.55,42l0.1,0.11L3.7,42.2a0.84,0.84,0,0,0,.2.14c0.31,0.15.66,0,1,.19h0a6.81,6.81,0,0,1,.87.76l0,0h0a1.74,1.74,0,0,0,.24.16l0.23,0.11h0c0.45,0.49,1.42.15,2.1,0h0a3,3,0,0,1,.49,0h0l0.37,0.06h0a6.78,6.78,0,0,1,1.09.39l0.13,0.05,0.07,0,0.24,0.1,0.48,0.16c0.29,0.08.61,0.16,0.94,0.24l0.33,0.07,0.21,0h0a36.19,36.19,0,0,0,4,.55H17l1.15,0.07,4.45,0.15,1.29,0,3.39,0.09,1.31,0,4.11,0.09h0.49c3.28,0.06,6.6.11,9.92,0.13h0.59l4.68,0h0.26c3.42,0,6.83,0,10.2-.07h0l5.41-.1H64.7l5.38-.15h0.28l4.57-.18,1.21-.05c1.58-.07,3.14-0.15,4.67-0.24h0.1a9.83,9.83,0,0,0,1-.12l0.17,0a9.21,9.21,0,0,0,.9-0.21h0a8.21,8.21,0,0,0,1.72-.74L84.91,44c0.2-.12.38-0.24,0.57-0.37l0.21-.15,0.5-.4L86.34,43a11,11,0,0,0,.83-0.76L87.32,42l0.1-.11c0.12-.13.23-0.28,0.35-0.44l0.14-.19,0.1-.14,0.16-.25,0.09-.14,0.17-.3,0.07-.14L88.69,40l0.06-.13,0.19-.42,0-.11c0.07-.16.13-0.32,0.19-0.5l0-.05a16.67,16.67,0,0,0,.59-2.06A9.67,9.67,0,0,0,90,35.1h0C90,34.74,90,34.4,90,34.06Z"/><path id="_Compound_Path_" data-name="&lt;Compound Path&gt;" class="cls-4" d="M90,33.52c0,0.61-3.57.76-4.23,0.25s-0.15-.58-0.61-1.2-0.69.64-1.09,0c-0.25-.38.17-2.15-0.35-1.85s-0.53-2-1.28-1.66c-0.48.19-1.72-.35-2.24-0.45-0.78-.15-2.27,1.57-3,1.31-0.41-.14-2.08-1.82-3-1.79-1.21,0-2-2.44-3.2-2.33s-1.28,1.89-2.88,1c-1.16-.63-5-7.09-6-7.2a4.7,4.7,0,0,1-.68,3.83c0.21,2.13,1.36,3.9.63,4.14-1.23.4,0.39,4-.58,3.3-0.56-.39-1.58-1.36-2.29-1.36s-0.85,1.07-.4,1.55,1.31,1.43-.06,1.74c-1.21.28-1.57-.69-2-1.58s-0.64.47-1.34,1.08c-2.47,2.13-3.55.77-4.26,0.94-1,.23-2.34.42-3.23,0.6s-1.64-.87-2.51-0.94a0.54,0.54,0,0,1-.31.34,0.77,0.77,0,0,1-.32-0.49c-0.87-.58-2.08-1.29-3.17-1s-0.84,1.76-2.07,2c-0.83.19-2.51,0.65-3.29,0.36-1.1-.41-1-2.07-1.65-2.87,0.27-.63-1-0.42-1.24-0.42-0.73-.09-1.89-0.8-2,0.43a3,3,0,0,1-.14,1.06,3.31,3.31,0,0,0-.68,1.27c-0.1,2.13-4,1.08-5.14.36a1.79,1.79,0,0,0-2.16-.2c-0.7.36-1.71,0.14-2.27,0.7s-0.56,1.22-1.62,1.06c-0.53-.08,0-0.47-0.58-0.48S17.32,37.93,17,37.4c-0.17-.27-1.75.72-2,0.72-1.53,0-2.22,3.58-6.31,2.81-4.35-1.45-7.08-2.43-7.33-2a0.45,0.45,0,0,0,0,.38l0.17,0.3a4.17,4.17,0,0,0,1.2,1.43h0a1.37,1.37,0,0,1,.54.61,1.44,1.44,0,0,0,.52.63l0,0c0.31,0.15.66,0,1,.19a7.63,7.63,0,0,1,.93.82,3.11,3.11,0,0,0,2.51.32c1.18-.12,1.92.5,3,0.81a24.94,24.94,0,0,0,3.27.66,35.8,35.8,0,0,0,3.57.33c8.36,0.3,17.29.5,26.26,0.55h0.29c4.38,0,8.76,0,13.09,0,8-.1,15.87-0.34,23.13-0.77a8.77,8.77,0,0,0,3.37-.84A9.49,9.49,0,0,0,86.33,43l0.18-.16c0.82-.71,2.39-2.15,3.26-6.1A9.71,9.71,0,0,0,90,34.88C90,34.42,90,34,90,33.52Zm-6.6-2.11h0Z"/><g id="_Group_2" data-name="&lt;Group&gt;" class="cls-5"><path id="_Path_6" data-name="&lt;Path&gt;" class="cls-6" d="M89.26,38.09c-1.75-3.37-2.2-1.79-2.9-1.7-1.25.15-.13,1-1.73,0.26-2.51-1.19-.64,2.75-3.47-0.85-0.47,2.09-.85-3-1.38-2.09a5.55,5.55,0,0,1-2.41,2c-2.73,1.32,1.49-3.28-4.26-2.13,0,0-4.58-4.54-2.94-.13C71,35.53,68.92,30.31,66,29.74c-0.83,1.41.2,2.21-.7,2.81-0.63.42,0,4-2.11,2.81-0.93-.53-0.79,1.14-1.75,2.17-2.17-1.53-3.16.44-4,1.07-2.16,1.67-5.11.34-5.82,1.5,0.1-.92-1.93-2.79-2.59-2.84-0.81-.07-1.61.32-2.4,0a18.13,18.13,0,0,1-2.8-.75c-1.52-.82-2.7.8-4,1.42-0.72.33-1.48,1-2.32,0.73s-1.12-1.19-1.85-1.54a1.37,1.37,0,0,1-.26.06c-0.44.27-.24-0.08-0.56-0.17a2.65,2.65,0,0,0-2.17,1c-0.64.65-.62,1.08-1.58,1.37s-1.67-.2-2.54-0.37-1.23-1-2.11-.3c-0.59.47-.93,0.82-1.66,0.3-1-.7-1.36-0.41-2.49-0.17a11.17,11.17,0,0,1-3.59-.27c-1-.14-0.65,2.16-1.71,2.07s-2.31,2-3.32,2.17c-1.66.3-2.81-.13-3.41,0.38-0.95.81-4-1.28-3.75,0.26a2,2,0,0,0,.23.28,7.13,7.13,0,0,0,1.53-.09c1.18-.12,1.92.5,3,0.81a32.55,32.55,0,0,0,6.84,1c20.1,0.72,43.5.88,62.76-.25A8.62,8.62,0,0,0,86.35,43a9.1,9.1,0,0,0,3.07-4.86Z"/><path id="_Path_7" data-name="&lt;Path&gt;" class="cls-3" d="M35.71,37.16c-0.09-.07-0.36-0.17,0,0h0Z"/></g><g id="_Group_3" data-name="&lt;Group&gt;" class="cls-7"><path id="_Path_8" data-name="&lt;Path&gt;" class="cls-8" d="M38.28,46h0Z"/><path id="_Path_9" data-name="&lt;Path&gt;" class="cls-9" d="M88.66,34.73c-0.24-1.31-2.92-.74-3.07-1-0.41-.68-0.89-1.12-2.88.22-1-1.79-.52-3.42-1-2.75-1,1.52-1.61-.74-2.43-0.38-1.31.58-3.73-.67-3.77-0.19-0.16,1.73-.86-0.67-1.92-2.08s-1.59,1.32-3.26,1.28c-0.87,0,1-2.33-1.15-1.95-2.75,2-4.76-3.26-4.15-1.66,0.35,0.93-1.17,5.44-1.41,5.18-0.93-1,.49,2.87-0.83,2.21-0.51-.26-0.9.08-1.41-0.23-0.28-.17-0.61-0.58-0.91-0.14s0.07,1.81-.82,1.73a9.13,9.13,0,0,1-1.11-.54c-0.88-.18-0.44,1.32-0.69,1.62-0.74.89-3-.5-3.46-0.16-1.9,1.39-1.66,0-2.78-.32-0.47-.14-0.93.05-1.4-0.07A6.94,6.94,0,0,0,47.68,35c0.5-.57-1.13-0.92-1.53-1.16-0.61-.35-1,0.26-1.58.12a1.81,1.81,0,0,1-.67-0.65,2.68,2.68,0,0,0-1.29-.59c-1.6-.31-1.68,1.54-2.81,2.31-1.29.88-2.76,1.54-4,.19-0.66-.74-1.36-2.74-2.56-2.67-2,.11-0.26,1.78-0.87,2.09a3.79,3.79,0,0,0-1.19.94c-0.62.67-1.26,0.26-2,0s-1.17.22-1.87,0.19a5.3,5.3,0,0,1-.54-0.41,3.08,3.08,0,0,1-1.11-.21c-0.54-.33-0.91-0.94-1.62-0.9a5,5,0,0,0-1.93.71c-0.52.32-.91,0.79-1.41,1.13a3.83,3.83,0,0,1-2.35.3c-1.08,2.75-4.19,2.63-3.89,3.14,0.4,0.66-2.3,1.92-4.77,2-2.12.11-4-.9-4.39-0.72-1.46.66-.18,1.61,0.89,2.73a0.5,0.5,0,0,0,.21.13h0a5.37,5.37,0,0,0,1.79,0,5.76,5.76,0,0,1,2.7.71,6.64,6.64,0,0,0,1.35.37l0.32,0.05a35.71,35.71,0,0,0,5.45.65c13.35,0.48,28.16.71,42.24,0.48,7.12-.12,14.05-0.35,20.52-0.73a8.7,8.7,0,0,0,3.56-.93,9.2,9.2,0,0,0,1.52-1L86.34,43c0.75-.65,2.5-2,3.44-6.26h0C89.48,36.65,88.94,36.23,88.66,34.73Z"/></g><path id="_Path_10" data-name="&lt;Path&gt;" class="cls-2" d="M59.64,7.3c0.46-2,1.09-3.6,3.08-4.74a3.14,3.14,0,0,0-1,.29c-0.62.29-.9,1-1.48,1.35A1.83,1.83,0,0,1,58.34,4a19.24,19.24,0,0,0-2-1.46C57.92,6.54,58.84,4.54,59.64,7.3Z"/><path id="_Path_11" data-name="&lt;Path&gt;" class="cls-2" d="M21.91,15.52c2.71,1.49,2.82,0,4.75.56,1.61,0.48,1.89-.15,3.49.34a9.81,9.81,0,0,1,6,4.81c-0.21-.83-1.07-4.18-3.54-5.11-3-1.12-2.35-1.66-3.29-2.2v0s0,0.09,0,.14a4.07,4.07,0,0,1,0,.59,1,1,0,0,1-.22.82,1.59,1.59,0,0,1-1.75.19,2.22,2.22,0,0,0-2.1-.26,2.43,2.43,0,0,1-2.29-.12c-0.63-.39-1.73-1-4.16-0.46-1.47.32-3,.46-3.76,2A11.71,11.71,0,0,1,14.35,18,7.91,7.91,0,0,1,21.91,15.52Z"/><path id="_Path_12" data-name="&lt;Path&gt;" class="cls-4" d="M33.59,18.16a3.71,3.71,0,0,0-2.29-2.42,13.33,13.33,0,0,1-2-1.49,1.73,1.73,0,0,1-.24,1.24,1.47,1.47,0,0,1-1,.36C26.52,15.88,30.09,15.48,33.59,18.16Z"/></g></symbol><symbol id="cloud1" data-name="cloud1" viewBox="0 0 90.1 46.06"><use id="cloud1_3-3" data-name="cloud1 3" width="90" height="46.01" xlink:href="#cloud1_3"/></symbol></defs><title>symbols</title><use id="fog-3" data-name="fog" width="90" height="19" transform="translate(0 76)" xlink:href="#fog"/><use id="cloud1-3" data-name="cloud1" width="90.1" height="46.06" transform="translate(5 25.66)" xlink:href="#cloud1"/></svg>