<svg id="symbol" xmlns="http://www.w3.org/2000/svg" xmlns:xlink="http://www.w3.org/1999/xlink" viewBox="0 0 100 100"><defs><style>.cls-1{fill:#ccc;}.cls-2{fill:#e6e6e6;}.cls-3{fill:#999;}.cls-3,.cls-4{opacity:0.14;}.cls-10,.cls-4,.cls-5,.cls-7,.cls-8{fill:#737373;}.cls-5{opacity:0.16;}.cls-6,.cls-7{opacity:0.18;}.cls-10,.cls-9{opacity:0.2;}.cls-11{fill:#ffdd15;}.cls-12{fill:#354246;}.cls-13{fill:#47c0e3;}</style><symbol id="moon" data-name="moon" viewBox="0 0 65.57 70"><path class="cls-12" d="M34.94,0a35,35,0,0,1,4.75,17.6A35.16,35.16,0,0,1,4.53,52.76,35.29,35.29,0,0,1,0,52.44,35.14,35.14,0,1,0,34.94,0Z"/></symbol><symbol id="snowflake" data-name="snowflake" viewBox="0 0 12 11.08"><path class="cls-13" d="M4.64,10.56L6.15,7.31l2.06,2.94a0.89,0.89,0,0,0,1.24.22,0.91,0.91,0,0,0,.22-1.24L7.61,6.29,11.19,6A0.91,0.91,0,0,0,12,5a0.89,0.89,0,0,0-1-.81l-3.58.31L9,1.26A0.89,0.89,0,0,0,7.36.51L5.85,3.77,3.78,0.83a0.89,0.89,0,0,0-1.46,1L4.39,4.79,0.81,5.1A0.89,0.89,0,0,0,1,6.87l3.58-.31L3,9.81A0.89,0.89,0,1,0,4.64,10.56Z"/></symbol><symbol id="New_Symbol" data-name="New Symbol" viewBox="0 0 46.04 23.54"><g id="_Group_" data-name="&lt;Group&gt;"><g id="cloud1_3" data-name="cloud1 3"><g id="_Group_2" data-name="&lt;Group&gt;"><path id="_Path_" data-name="&lt;Path&gt;" class="cls-1" d="M45,13.81a1.62,1.62,0,0,1-.33-1,1.45,1.45,0,0,0-.84-0.67,6.06,6.06,0,0,0-1.18-.22C42,11.73,41.91,10.46,41.3,10c-0.8-.58-0.25-1.59-1-2.23a1.69,1.69,0,0,0-1.06-.26,6.39,6.39,0,0,1-1.29-.62c-0.76-.36-0.55-1-1.07-2.07a5.5,5.5,0,0,0-2-2,5.81,5.81,0,0,0-.93-0.36,1.22,1.22,0,0,1-.49-0.6,1.52,1.52,0,0,0-1.86-.43c-0.32.15-.46,0.51-0.76,0.69a0.94,0.94,0,0,1-1-.08c-3.43-2.9-7.66-2.64-8.36.09-0.9.71-2,1.11-2.35,3.38a1.06,1.06,0,0,0-1.41.12,2,2,0,0,0-1.17-.12A1.92,1.92,0,0,0,15,7.13a1.39,1.39,0,0,1-.13.79A0.81,0.81,0,0,1,14,8a1.14,1.14,0,0,0-1.08-.13,1.24,1.24,0,0,1-1.17-.06A2.56,2.56,0,0,0,9.6,7.59a2.36,2.36,0,0,0-1.92,1c-0.8,1.6-1,.91-1.84,1.82a3.23,3.23,0,0,1-.67.93,2.57,2.57,0,0,0-.83.34C4,11.92,3.55,11.73,3.24,12c-0.15.11-.08,0.16-0.36,0.4s-0.49.38-.72,0.59a3.37,3.37,0,0,0-.86,1.11,2.68,2.68,0,0,1-.5,1.09,1.76,1.76,0,0,0-.37.91c-0.08.17-.28,0.21-0.35,0.39a2.22,2.22,0,0,0-.06.82A5,5,0,0,0,1.42,21c0.31,0.15.29,0.52,0.58,0.65s0.34,0,.49.1a3.9,3.9,0,0,1,.47.42,1.59,1.59,0,0,0,1.28.16,3.71,3.71,0,0,1,1.53.41,16.65,16.65,0,0,0,3.5.5c10.28,0.37,22.25.45,32.11-.13A4.41,4.41,0,0,0,44.17,22a5.05,5.05,0,0,0,1.76-3.2A7.81,7.81,0,0,0,45,13.81Z"/><path id="_Path_2" data-name="&lt;Path&gt;" class="cls-2" d="M46,17.86s0,0.09,0,.13S46,17.9,46,17.86Z"/><path id="_Path_3" data-name="&lt;Path&gt;" class="cls-2" d="M46,17.48s0,0.07,0,.1S46,17.52,46,17.48Z"/><path id="_Path_4" data-name="&lt;Path&gt;" class="cls-3" d="M46,17.58c0,0.09,0,.18,0,0.27C46,17.77,46,17.68,46,17.58Z"/><path id="_Path_5" data-name="&lt;Path&gt;" class="cls-4" d="M46,17.42c0-.21,0-0.41-0.05-0.62V16.74c0-.21-0.07-0.42-0.11-0.62V16.07c-0.36-.55-2,0.49-2.3-0.68-0.56-1.9-1.08-2.12-2.36-2.49-0.42-.14-0.4.4-0.58,0.57a1.16,1.16,0,0,1-1.05.24c-0.75-.18-1.74-1.18-2.48-1.33-2-.39-1.08.53-2.23,0.2a3.73,3.73,0,0,1-1.09-.92c-1.1-1.21-.3-2.2-1.74-3-1-.26-0.73.53-2.85-0.94-2.76-1.9-5.11,1-4.95,1.81C27,7,28.45,8.56,29.14,9c1,0.59,2.24,1.29,1.79,2.33s0.08,1.64-.16,1.93-0.24,1.29-.58,1.14c-0.92-.39-0.61,1-1.7.78-0.42-.08-0.9.52-1.31,0.7s-0.86-.37-1.23-0.14a5.09,5.09,0,0,0-1,.42c-0.27.27-.25-0.42-0.29-0.48-0.17-.2-0.44.06-0.63-0.13s0-.52-0.51-0.59a1.48,1.48,0,0,0-1,.1,5.2,5.2,0,0,0-.13.71,3.61,3.61,0,0,0-1-.31,0.48,0.48,0,0,0-.14-0.72c-0.37-.23-0.28.36-0.57,0.37s-0.28.16-.26,0.51a1.83,1.83,0,0,1-.5.72c-0.3.57-.6,1.16-1.38,0.66a1.92,1.92,0,0,1-.47-0.77,2,2,0,0,1-.1-1.12c0-.44-0.43-0.3-0.71-0.4A1.35,1.35,0,0,1,16.45,14a1.18,1.18,0,0,0-1.66-.16c-0.45.5-.33,1.38-0.68,2a1,1,0,0,1-.88.54,4.47,4.47,0,0,1-1,0c-0.36-.52-0.62.59-1.07,0s-1-.23-1.33.41c-0.45.88-1.51,2.7-2.31,2.15C7,18.65,6.62,21.69,3,20.16c-1.83-.76-2.48-1.48-2.7-1.21,0,0.15.08,0.29,0.13,0.42l0,0.1q0.08,0.2.16,0.37v0L0.66,20l0.15,0.27L0.9,20.42,1,20.64l0.06,0.07,0.16,0.18h0L1.42,21l0,0,0.06,0,0.06,0.06,0,0a1.91,1.91,0,0,1,.15.24l0,0.06,0,0,0,0.06,0,0L2,21.66c0.16,0.08.34,0,.49,0.1h0a3.48,3.48,0,0,1,.44.39l0,0H3l0.12,0.08,0.12,0.06h0a1.29,1.29,0,0,0,1.08,0H4.55l0.19,0h0a3.47,3.47,0,0,1,.56.2l0.07,0h0l0.12,0,0.24,0.08,0.48,0.12,0.17,0,0.11,0h0a18.51,18.51,0,0,0,2.05.28H8.69l0.59,0,2.28,0.08,0.66,0,1.74,0,0.67,0,2.1,0H17L22,23.53h2.83c1.75,0,3.49,0,5.22,0h0l2.77-.05H33.1l2.75-.08H36l2.34-.09,0.62,0,2.39-.12h0.05a5,5,0,0,0,.54-0.06L42,23l0.46-.11h0a4.2,4.2,0,0,0,.88-0.38l0.07,0,0.29-.19,0.11-.08L44.1,22,44.17,22a5.64,5.64,0,0,0,.42-0.39l0.08-.09,0.05-.06,0.18-.22,0.07-.1,0-.07,0.08-.13,0-.07,0.09-.15,0-.07,0.09-.18,0-.07,0.1-.21,0-.05,0.1-.25v0a8.53,8.53,0,0,0,.3-1.06A4.94,4.94,0,0,0,46,18h0C46,17.77,46,17.6,46,17.42Z"/><path id="_Compound_Path_" data-name="&lt;Compound Path&gt;" class="cls-5" d="M46,17.15c0,0.31-1.82.39-2.16,0.13a1.52,1.52,0,0,1-.31-0.62c-0.22-.3-0.35.33-0.56,0s0.09-1.1-.18-0.95-0.27-1-.65-0.85A3.27,3.27,0,0,1,41,14.65c-0.4-.08-1.16.8-1.55,0.67a5,5,0,0,0-1.55-.92c-0.62,0-1-1.25-1.63-1.19s-0.65,1-1.47.52c-0.59-.32-2.57-3.62-3.08-3.69a2.41,2.41,0,0,1-.35,2c0.11,1.09.7,2,.32,2.12-0.63.2,0.2,2-.29,1.69a3,3,0,0,0-1.17-.7c-0.43,0-.44.55-0.2,0.79s0.67,0.73,0,.89-0.8-.35-1-0.81-0.33.24-.69,0.55C27,17.64,26.46,16.94,26.1,17s-1.2.22-1.65,0.31-0.84-.45-1.29-0.48A0.28,0.28,0,0,1,23,17a0.4,0.4,0,0,1-.16-0.25,2.19,2.19,0,0,0-1.62-.51c-0.6.16-.43,0.9-1.06,1a4,4,0,0,1-1.68.18C17.91,17.28,18,16.43,17.63,16c0.14-.32-0.49-0.21-0.63-0.21-0.37,0-1-.41-1,0.22a1.53,1.53,0,0,1-.07.54,1.69,1.69,0,0,0-.35.65c-0.05,1.09-2.06.55-2.63,0.18a0.92,0.92,0,0,0-1.11-.1,4.07,4.07,0,0,0-1.16.36c-0.3.31-.29,0.62-0.83,0.54A1.57,1.57,0,0,0,9.52,18c-0.25,0-.66,1.45-0.83,1.18a3.36,3.36,0,0,0-1,.37c-0.78,0-1.13,1.83-3.23,1.44-2.22-.74-3.62-1.24-3.75-1a0.23,0.23,0,0,0,0,.2L0.8,20.27a2.13,2.13,0,0,0,.61.73h0a0.7,0.7,0,0,1,.28.31,0.74,0.74,0,0,0,.27.32H2c0.16,0.08.34,0,.49,0.1a3.9,3.9,0,0,1,.47.42,1.59,1.59,0,0,0,1.28.16,3.71,3.71,0,0,1,1.53.41,12.76,12.76,0,0,0,1.67.34,18.32,18.32,0,0,0,1.83.17c4.28,0.15,8.85.26,13.43,0.28h0.15c2.24,0,4.48,0,6.7,0,4.11-.05,8.12-0.17,11.83-0.39a4.49,4.49,0,0,0,1.73-.43A4.85,4.85,0,0,0,44.16,22l0.09-.08a5.12,5.12,0,0,0,1.67-3.12A5,5,0,0,0,46,17.84C46,17.61,46,17.39,46,17.15Zm-3.38-1.08h0Z"/><g id="_Group_3" data-name="&lt;Group&gt;" class="cls-6"><path id="_Path_6" data-name="&lt;Path&gt;" class="cls-7" d="M19.58,23.54h0Z"/><path id="_Path_7" data-name="&lt;Path&gt;" class="cls-8" d="M45.36,17.77c-0.12-.67-1.49-0.38-1.57-0.51-0.21-.35-0.46-0.57-1.47.11C41.81,16.46,42,15.62,41.83,16c-0.5.78-.82-0.38-1.24-0.2-0.67.29-1.91-.34-1.93-0.1-0.08.89-.44-0.34-1-1.06s-0.81.67-1.67,0.65c-0.45,0,.49-1.19-0.59-1-1.41,1-2.43-1.67-2.12-.85a5.55,5.55,0,0,1-.72,2.65c-0.47-.53.25,1.47-0.43,1.13a6.33,6.33,0,0,1-.72-0.12C31.28,17,31.12,16.78,31,17s0,0.93-.42.89A4.67,4.67,0,0,1,30,17.61c-0.45-.09-0.23.68-0.35,0.83-0.38.45-1.53-.25-1.77-0.08-1,.71-0.85,0-1.42-0.16-0.24-.07-0.48,0-0.71,0a3.55,3.55,0,0,0-1.32-.27c0.25-.29-0.58-0.47-0.78-0.59a2,2,0,0,0-.81.06A0.93,0.93,0,0,1,22.46,17a1.37,1.37,0,0,0-.66-0.3c-0.82-.16-0.86.79-1.44,1.18s-1.41.79-2,.1c-0.34-.38-0.7-1.4-1.31-1.37-1,.06-0.14.91-0.45,1.07a1.94,1.94,0,0,0-.61.48,0.8,0.8,0,0,1-1,0,2.61,2.61,0,0,0-1,.1,2.71,2.71,0,0,1-.28-0.21A1.58,1.58,0,0,1,13.17,18a1.46,1.46,0,0,0-.83-0.46,2.54,2.54,0,0,0-1,.36c-0.27.16-.46,0.41-0.72,0.58a2,2,0,0,1-1.2.15C8.88,20,7.28,20,7.44,20.21s-1.18,1-2.44,1a14.7,14.7,0,0,1-2.24-.37c-0.75.34-.09,0.82,0.46,1.39a0.26,0.26,0,0,0,.11.07h0a2.74,2.74,0,0,0,.91,0,3,3,0,0,1,1.38.37,3.4,3.4,0,0,0,.69.19l0.16,0a18.27,18.27,0,0,0,2.79.33c6.83,0.25,14.41.36,21.61,0.24,3.64-.06,7.19-0.18,10.5-0.37a4.45,4.45,0,0,0,1.82-.48,4.71,4.71,0,0,0,.78-0.5l0.2-.16a5.05,5.05,0,0,0,1.76-3.2h0A1.09,1.09,0,0,1,45.36,17.77Z"/></g><path id="_Path_8" data-name="&lt;Path&gt;" class="cls-4" d="M30.51,3.74a3.31,3.31,0,0,1,1.57-2.43,1.61,1.61,0,0,0-.53.15c-0.32.15-.46,0.51-0.76,0.69a0.94,0.94,0,0,1-1-.08,9.84,9.84,0,0,0-1-.75C29.63,3.35,30.1,2.32,30.51,3.74Z"/><path id="_Path_9" data-name="&lt;Path&gt;" class="cls-4" d="M11.21,7.94c1.39,0.76,1.44,0,2.43.29,0.82,0.25,1-.08,1.78.17a5,5,0,0,1,3.07,2.46c-0.11-.43-0.54-2.14-1.81-2.62A3.65,3.65,0,0,1,15,7.12h0s0,0,0,.07a2.08,2.08,0,0,1,0,.3,0.52,0.52,0,0,1-.11.42A0.81,0.81,0,0,1,14,8a1.14,1.14,0,0,0-1.08-.13,1.24,1.24,0,0,1-1.17-.06A2.56,2.56,0,0,0,9.6,7.59a2.36,2.36,0,0,0-1.92,1,6,6,0,0,1-.33.6A4,4,0,0,1,11.21,7.94Z"/><path id="_Path_10" data-name="&lt;Path&gt;" class="cls-5" d="M17.18,9.29A1.9,1.9,0,0,0,16,8.05a6.82,6.82,0,0,1-1-.76,0.88,0.88,0,0,1-.12.63,0.75,0.75,0,0,1-.51.18A6.51,6.51,0,0,1,17.18,9.29Z"/><g id="_Group_4" data-name="&lt;Group&gt;" class="cls-9"><path id="_Path_11" data-name="&lt;Path&gt;" class="cls-8" d="M45.66,19.48c-0.89-1.72-1.12-.91-1.48-0.87-0.64.08-.07,0.52-0.88,0.13C42,18.13,43,20.15,41.52,18.31c-0.24,1.07-.44-1.52-0.71-1.07a2.84,2.84,0,0,1-1.23,1c-1.39.68,0.76-1.68-2.18-1.09,0,0-2.34-2.32-1.5-.07,0.4,1.07-.64-1.6-2.11-1.9-0.42.72,0.1,1.13-.36,1.44s0,2.06-1.08,1.44c-0.47-.27-0.4.58-0.89,1.11-1.11-.78-1.61.23-2,0.55-1.1.86-2.61,0.17-3,.77a2.32,2.32,0,0,0-1.32-1.45,4.61,4.61,0,0,1-1.23,0,9.28,9.28,0,0,1-1.43-.38c-0.78-.42-1.38.41-2.06,0.73a1.63,1.63,0,0,1-1.19.37A9.08,9.08,0,0,1,18.27,19a0.7,0.7,0,0,1-.13,0c-0.22.14-.12,0-0.29-0.09a1.35,1.35,0,0,0-1.11.49,1.59,1.59,0,0,1-.81.7,2.7,2.7,0,0,1-1.3-.19c-0.43-.08-0.63-0.51-1.08-0.15-0.3.24-.48,0.42-0.85,0.16a1.21,1.21,0,0,0-1.27-.08,5.71,5.71,0,0,1-1.84-.14c-0.52-.07-0.33,1.11-0.87,1.06s-1.18,1-1.7,1.11c-0.85.15-1.44-.07-1.74,0.2-0.49.42-2-.65-1.92,0.13a1,1,0,0,0,.12.14,3.65,3.65,0,0,0,.78,0,3.71,3.71,0,0,1,1.53.41,16.65,16.65,0,0,0,3.5.5c10.28,0.37,22.25.45,32.11-.13A4.41,4.41,0,0,0,44.17,22a4.66,4.66,0,0,0,1.57-2.49H45.66Z"/><path id="_Path_12" data-name="&lt;Path&gt;" class="cls-10" d="M18.27,19s-0.19-.09,0,0h0Z"/></g></g></g></g></symbol><symbol id="cloud2" data-name="cloud2" viewBox="0 0 89.78 45.9"><use id="New_Symbol-3" data-name="New Symbol" width="46.04" height="23.54" transform="scale(1.95)" xlink:href="#New_Symbol"/></symbol><symbol id="lightning" data-name="lightning" viewBox="0 0 14.6 40"><polygon class="cls-11" points="14.6 18.42 7.74 15.39 10.55 0 0 19.49 7.08 22.51 2.49 40 14.6 18.42"/></symbol></defs><title>symbols</title><use id="moon-3" data-name="moon" width="65.57" height="70" transform="translate(0 5) scale(0.71)" xlink:href="#moon"/><use id="snowflake-3" data-name="snowflake" width="12" height="11.08" transform="translate(26 88)" xlink:href="#snowflake"/><use id="snowflake-6" data-name="snowflake" width="12" height="11.08" transform="translate(58 79)" xlink:href="#snowflake"/><use id="cloud2-3" data-name="cloud2" width="89.78" height="45.9" transform="translate(5 27.14)" xlink:href="#cloud2"/><use id="lightning-3" data-name="lightning" width="14.6" height="40" transform="translate(42 53)" xlink:href="#lightning"/></svg>