<?xml version="1.0" encoding="utf-8"?>
<!-- Generator: Adobe Illustrator 19.2.0, SVG Export Plug-In . SVG Version: 6.00 Build 0)  -->
<svg version="1.1" id="Layer_1" xmlns="http://www.w3.org/2000/svg" xmlns:xlink="http://www.w3.org/1999/xlink" x="0px" y="0px"
	 viewBox="0 0 50 50" style="enable-background:new 0 0 50 50;" xml:space="preserve">
<style type="text/css">
	.st0{fill:#00B9F1;}
</style>
<g>
	<circle class="st0" cx="25" cy="23" r="4.3"/>
	<path class="st0" d="M42,21.5h-3.8c-0.7-6.2-5.6-11.1-11.8-11.8V6c0-0.8-0.7-1.5-1.5-1.5S23.5,5.1,23.5,6v3.8
		c-6.2,0.7-11.1,5.6-11.8,11.8H8c-0.8,0-1.5,0.7-1.5,1.5s0.7,1.5,1.5,1.5h3.8c0.7,6.2,5.6,11.1,11.8,11.8V40c0,0.8,0.7,1.5,1.5,1.5
		s1.5-0.7,1.5-1.5v-3.8c6.2-0.7,11.1-5.6,11.8-11.8H42c0.8,0,1.5-0.7,1.5-1.5S42.9,21.5,42,21.5z M25,33.4
		c-5.7,0-10.4-4.7-10.4-10.4S19.3,12.6,25,12.6S35.4,17.3,35.4,23S30.7,33.4,25,33.4z"/>
</g>
</svg>
