<?xml version="1.0" encoding="utf-8"?>
<!-- Generator: Adobe Illustrator 19.2.0, SVG Export Plug-In . SVG Version: 6.00 Build 0)  -->
<svg version="1.1" id="Layer_1" xmlns="http://www.w3.org/2000/svg" xmlns:xlink="http://www.w3.org/1999/xlink" x="0px" y="0px"
	 viewBox="0 0 50 50" style="enable-background:new 0 0 50 50;" xml:space="preserve">
<style type="text/css">
	.st0{fill:#686A6C;}
</style>
<g>
	<path class="st0" d="M39.7,15.2c0,1.2-0.6,2.4-1.7,3.6c-0.9,0.9-6.9,6.9-18.2,18c-0.1,0.1-0.2,0.2-0.3,0.2
		c-1.3,0.4-3.9,1.2-7.9,2.6c-0.1,0-0.2,0-0.3,0c-0.3,0-0.5-0.1-0.7-0.2c-0.3-0.3-0.3-0.6-0.2-1c1.5-5.1,2.3-7.8,2.4-8
		c0-0.2,0.1-0.3,0.2-0.5l18.2-18.1c1-1,2.2-1.5,3.6-1.5c1.2,0,2.3,0.5,3.3,1.4C39.1,12.8,39.7,14,39.7,15.2z M13.5,34.5
		c-0.4,1.4-0.8,2.4-0.9,3c0.6-0.2,1.7-0.5,3.1-1c1.4-0.5,2.3-0.8,2.7-0.9c-0.3-0.9-0.7-1.6-1.4-2.3c-0.8-0.8-1.7-1.4-2.6-1.6
		C14.2,32.1,13.9,33,13.5,34.5z M26.3,19.4c-2,2-4.1,4.1-6.3,6.3s-3.7,3.7-4.4,4.4c1,0.4,1.9,1,2.7,1.8c0.6,0.6,1.2,1.4,1.5,2.3
		c7.5-7.4,12.6-12.5,15.2-15.1c-0.2-1-0.7-1.9-1.5-2.7c-0.8-0.8-1.7-1.4-2.7-1.6C29.8,15.8,28.3,17.4,26.3,19.4z M37.8,15.3
		c0-0.7-0.4-1.4-1.1-2.1c-0.6-0.6-1.3-1-2-1c-0.8,0-1.5,0.3-2.2,1l-0.1,0.1c0.9,0.4,1.8,1,2.5,1.8c0.7,0.7,1.3,1.6,1.7,2.6
		c0.1-0.1,0.1-0.1,0.2-0.2C37.4,16.7,37.8,16,37.8,15.3z"/>
</g>
</svg>
