<?xml version="1.0" encoding="utf-8"?>
<!-- Generator: Adobe Illustrator 19.2.0, SVG Export Plug-In . SVG Version: 6.00 Build 0)  -->
<svg version="1.1" id="Layer_1" xmlns="http://www.w3.org/2000/svg" xmlns:xlink="http://www.w3.org/1999/xlink" x="0px" y="0px"
	 viewBox="0 0 23.2 21.3" style="enable-background:new 0 0 23.2 21.3;" xml:space="preserve">
<style type="text/css">
	.st0{fill:#686A6C;}
</style>
<g>
	<path class="st0" d="M11.7,3l1.6,4.9l0.3,1h1l4.5,0l-3.7,2.7l-0.8,0.6l0.3,1l1.4,4.4l-3.9-2.7l-0.8-0.6l-0.8,0.6l-3.9,2.8l1.5-4.5
		l0.3-1l-0.8-0.6L4,8.9h4.7h1l0.3-1L11.7,3 M11.7,1.1c-0.6,0-0.9,0.4-1.1,0.8L8.8,7.5H2.9c-0.7,0-0.9,0.4-1,0.6
		C1.8,8.4,1.7,8.9,2.2,9.3L7,12.7l-1.8,5.5c-0.1,0.4,0,0.9,0.4,1.2c0.2,0.1,0.4,0.2,0.6,0.2s0.4-0.1,0.6-0.2l4.8-3.4l5.2,3.6H17
		c0.2,0,0.4-0.1,0.6-0.2c0.4-0.3,0.5-0.8,0.4-1.2l-1.8-5.5l4.2-3L21,9.4h0.1c0.4-0.3,0.5-0.7,0.4-1.2c-0.1-0.3-0.3-0.7-1-0.7h-5.9
		l-1.8-5.6C12.5,1.5,12.2,1.1,11.7,1.1L11.7,1.1z"/>
</g>
</svg>
