<?xml version="1.0" encoding="utf-8"?>
<!-- Generator: Adobe Illustrator 19.2.0, SVG Export Plug-In . SVG Version: 6.00 Build 0)  -->
<svg version="1.1" id="Layer_1" xmlns="http://www.w3.org/2000/svg" xmlns:xlink="http://www.w3.org/1999/xlink" x="0px" y="0px"
	 viewBox="0 0 50 50" style="enable-background:new 0 0 50 50;" xml:space="preserve">
<style type="text/css">
	.st0{fill:#686A6C;}
</style>
<g>
	<path class="st0" d="M37.6,12.4c0.2,0.2,0.3,0.4,0.3,0.7s-0.1,0.5-0.3,0.7c-0.2,0.2-0.4,0.3-0.7,0.3h-1.4l-2.3,23
		c0,0.5-0.3,1-0.7,1.3c-0.4,0.4-0.9,0.5-1.4,0.5H18.8c-0.5,0-1-0.2-1.4-0.6C17,38,16.8,37.5,16.7,37l-2.3-22.9h-1.4
		c-0.3,0-0.5-0.1-0.7-0.3c-0.2-0.2-0.3-0.4-0.3-0.7s0.1-0.5,0.3-0.7c0.2-0.2,0.4-0.3,0.7-0.3h7V9.3c0-0.6,0.2-1.1,0.7-1.6
		s1-0.7,1.6-0.7h5.3c0.6,0,1.2,0.2,1.6,0.7s0.7,1,0.7,1.6v2.7h7C37.2,12.1,37.4,12.2,37.6,12.4z M33.6,14.1H16.4l2.3,22.7
		c0,0.1,0,0.1,0.1,0.1h12.4c0,0,0.1,0,0.1-0.1L33.6,14.1z M22,12.1h6V9.3C28,9.1,27.9,9,27.7,9h-5.3C22.1,9,22,9.1,22,9.3V12.1z"/>
</g>
</svg>
