<?xml version="1.0" encoding="utf-8"?>
<!-- Generator: Adobe Illustrator 19.2.0, SVG Export Plug-In . SVG Version: 6.00 Build 0)  -->
<svg version="1.1" id="Layer_1" xmlns="http://www.w3.org/2000/svg" xmlns:xlink="http://www.w3.org/1999/xlink" x="0px" y="0px"
	 viewBox="0 0 50 50" style="enable-background:new 0 0 50 50;" xml:space="preserve">
<style type="text/css">
	.st0{fill:none;stroke:#FFFFFF;stroke-miterlimit:10;}
</style>
<g>
	<g>
		<path id="SVGID_1_" class="st0" d="M32.1,35.7c-0.2,0-0.2,0-0.3-0.1l-6.8-5l-6.8,4.9c-0.2,0.2-0.5,0.2-0.7,0
			c-0.2-0.2-0.3-0.4-0.2-0.6l2.6-8L13.1,22c-0.2-0.2-0.3-0.4-0.2-0.6c0.1-0.2,0.3-0.4,0.6-0.4h8.4l2.6-8c0.1-0.2,0.3-0.4,0.6-0.4
			s0.5,0.2,0.6,0.4l2.6,8h8.4c0.2,0,0.5,0.2,0.6,0.4c0.1,0.2,0,0.6-0.2,0.6l-6.8,4.9l2.6,8c0.1,0.2,0,0.6-0.2,0.6
			C32.3,35.6,32.3,35.7,32.1,35.7z"/>
	</g>
</g>
</svg>
