<?xml version="1.0" encoding="utf-8"?>
<!-- Generator: Adobe Illustrator 19.2.0, SVG Export Plug-In . SVG Version: 6.00 Build 0)  -->
<svg version="1.1" id="Layer_1" xmlns="http://www.w3.org/2000/svg" xmlns:xlink="http://www.w3.org/1999/xlink" x="0px" y="0px"
	 viewBox="0 0 120 33.2" style="enable-background:new 0 0 120 33.2;" xml:space="preserve">
<g>
	<g>
		<path d="M10.3,20.3c-5.6,0-10.1-4.6-10.1-10.1C0.2,4.6,4.7,0,10.3,0c5.6,0,10.1,4.6,10.1,10.1S15.9,20.3,10.3,20.3z M10.3,1.5
			c-4.8,0-8.6,3.9-8.6,8.6c0,4.8,3.9,8.6,8.6,8.6c4.8,0,8.6-3.9,8.6-8.6C18.9,5.4,15.1,1.5,10.3,1.5z"/>
		<polygon points="16.4,33.2 12.4,29.2 8.4,33.2 4.5,29.2 1,32.7 0,31.7 4.5,27.2 8.4,31.2 12.4,27.2 16.4,31.2 19.8,27.7 
			20.8,28.7 		"/>
	</g>
	<g>
		<path d="M33.7,20.1h-1.4v-1.4h1.4V20.1z M33.7,28.1h-1.4v-6.9h1.4V28.1z"/>
		<path d="M37.5,28.1h-1.4v-6.9h1.4v0.6c0.2-0.4,0.9-0.8,1.6-0.8c1.2,0,2.7,0.7,2.7,2.9v4.2h-1.4v-4.2c0-1-0.6-1.5-1.5-1.5
			c-0.9,0-1.5,0.5-1.5,1.5L37.5,28.1L37.5,28.1z"/>
		<path d="M43.6,25.8H45c0.1,0.7,0.8,1,1.5,1c0.6,0,1.1-0.2,1.1-0.7c0-0.5-0.4-0.6-0.9-0.7l-1.3-0.3c-0.9-0.2-1.8-0.7-1.8-2.1
			c0-1.4,1.1-2,2.5-2c1.5,0,2.5,0.7,2.6,2.2h-1.5c-0.1-0.6-0.6-0.9-1.3-0.9c-0.4,0-1,0.2-1,0.7c0,0.4,0.4,0.5,0.8,0.6l1.3,0.3
			c1.3,0.3,1.9,0.9,1.9,2.2c0,1.4-1.1,2-2.6,2C44.9,28.2,43.7,27.4,43.6,25.8z"/>
		<path d="M52.8,26c0,0.5,0.1,0.7,0.6,0.7h1.1v1.4h-1.5c-1.1,0-1.6-0.6-1.6-1.6v-3.9h-1v-1.3h1v-1.6h1.4v1.6h1.7v1.3h-1.7V26z"/>
		<path d="M57.9,20.1h-1.4v-1.4h1.4V20.1z M57.9,28.1h-1.4v-6.9h1.4V28.1z"/>
		<path d="M62.2,26c0,0.5,0.1,0.7,0.6,0.7h1.1v1.4h-1.5c-1.2,0-1.6-0.6-1.6-1.6v-3.9h-1v-1.3h1v-1.6h1.4v1.6h1.7v1.3h-1.7
			C62.2,22.5,62.2,26,62.2,26z"/>
		<path d="M67.2,25.3c0,1,0.6,1.5,1.4,1.5s1.4-0.5,1.4-1.5v-4.1h1.4v6.9H70v-0.7c-0.2,0.4-0.9,0.8-1.6,0.8c-1.2,0-2.7-0.8-2.7-2.9
			v-4.2h1.4L67.2,25.3L67.2,25.3z"/>
		<path d="M75.5,26c0,0.5,0.1,0.7,0.6,0.7h1.1v1.4h-1.5c-1.2,0-1.6-0.6-1.6-1.6v-3.9h-1v-1.3h1v-1.6h1.4v1.6h1.7v1.3h-1.7
			C75.5,22.5,75.5,26,75.5,26z"/>
		<path d="M80.9,26c0,0.5,0.1,0.7,0.6,0.7h1.1v1.4h-1.5c-1.1,0-1.6-0.6-1.6-1.6v-3.9h-1v-1.3h1v-1.6h1.4v1.6h1.7v1.3h-1.7V26z"/>
	</g>
	<g>
		<path d="M38.8,4.9h1.4v9.4h-1.4V7.8l-1.9,4h-1.2l-1.9-4v6.5h-1.4V4.9h1.4l2.5,5.2L38.8,4.9z"/>
		<path d="M46.7,12.1h1.4c-0.2,1.8-1.7,2.3-2.8,2.3c-1.2,0-2.9-0.6-2.9-2.9V10c0-2.3,1.7-2.9,2.9-2.9c1.2,0,2.9,0.6,2.9,2.9v1.2
			h-4.3v0.2c0,1,0.6,1.5,1.5,1.5C46,13,46.5,12.7,46.7,12.1z M43.8,10L43.8,10l2.9,0v0c0-1-0.6-1.5-1.5-1.5C44.4,8.5,43.8,9,43.8,10
			z"/>
		<path d="M52.1,12.2c0,0.5,0.1,0.7,0.6,0.7h1.1v1.4h-1.5c-1.1,0-1.6-0.6-1.6-1.6V8.7h-1V7.4h1V5.8h1.4v1.6h1.7v1.3h-1.7V12.2z"/>
		<path d="M59.8,12.1h1.4c-0.2,1.8-1.7,2.3-2.8,2.3c-1.2,0-2.9-0.6-2.9-2.9V10c0-2.3,1.7-2.9,2.9-2.9c1.2,0,2.9,0.6,2.9,2.9v1.2
			h-4.3v0.2c0,1,0.6,1.5,1.5,1.5C59.1,13,59.6,12.7,59.8,12.1z M56.9,10L56.9,10l2.9,0v0c0-1-0.6-1.5-1.5-1.5
			C57.5,8.5,56.9,9,56.9,10z"/>
		<path d="M63.2,10c0-2.3,1.7-2.9,2.9-2.9S69,7.8,69,10v1.5c0,2.3-1.7,2.9-2.9,2.9c-1.2,0-2.9-0.6-2.9-2.9V10z M67.6,10.1
			c0-1-0.6-1.5-1.5-1.5c-0.9,0-1.5,0.5-1.5,1.5v1.4c0,1,0.6,1.5,1.5,1.5c0.9,0,1.5-0.5,1.5-1.5V10.1z"/>
		<path d="M73.8,8.6c-0.9,0-1.5,0.5-1.5,1.5v4.1H71V7.4h1.4V8c0.2-0.4,0.9-0.8,1.6-0.8h0.5v1.4H73.8z"/>
		<path d="M75.9,10c0-2.3,1.7-2.9,2.9-2.9c1.2,0,2.9,0.6,2.9,2.9v1.5c0,2.3-1.7,2.9-2.9,2.9c-1.2,0-2.9-0.6-2.9-2.9
			C75.9,11.5,75.9,10,75.9,10z M80.3,10.1c0-1-0.6-1.5-1.5-1.5c-0.9,0-1.5,0.5-1.5,1.5v1.4c0,1,0.6,1.5,1.5,1.5
			c0.9,0,1.5-0.5,1.5-1.5V10.1z"/>
		<path d="M85.1,12.2c0,0.5,0.1,0.7,0.6,0.7H86v1.4h-0.6c-1.2,0-1.6-0.6-1.6-1.6V4.9h1.4L85.1,12.2L85.1,12.2z"/>
		<path d="M87.7,10c0-2.3,1.7-2.9,2.9-2.9c1.2,0,2.9,0.6,2.9,2.9v1.5c0,2.3-1.7,2.9-2.9,2.9c-1.2,0-2.9-0.6-2.9-2.9V10z M92.1,10.1
			c0-1-0.6-1.5-1.5-1.5c-0.9,0-1.5,0.5-1.5,1.5v1.4c0,1,0.6,1.5,1.5,1.5c0.9,0,1.5-0.5,1.5-1.5V10.1z"/>
		<path d="M104.7,6.3h-1.4V4.9h1.4V6.3z M104.7,14.3h-1.4V7.4h1.4V14.3z"/>
		<path d="M106.6,12h1.4c0.1,0.7,0.8,1,1.5,1c0.6,0,1.1-0.2,1.1-0.7c0-0.5-0.4-0.6-0.9-0.7l-1.3-0.3c-0.9-0.2-1.8-0.7-1.8-2.1
			c0-1.4,1.1-2,2.5-2c1.5,0,2.5,0.7,2.6,2.2h-1.5c-0.1-0.6-0.6-0.9-1.3-0.9c-0.4,0-1,0.2-1,0.7c0,0.4,0.4,0.5,0.8,0.6l1.3,0.3
			c1.3,0.3,1.9,0.9,1.9,2.2c0,1.4-1.1,2-2.6,2C108,14.4,106.7,13.6,106.6,12z"/>
		<path d="M115.4,10.2l2.6-2.8h1.7l-2.5,2.7l2.9,4.2h-1.6l-2.2-3.2l-0.9,0.9v2.2H114V4.9h1.4V10.2z"/>
		<path d="M99.6,14v-0.8C99.4,13.6,98.8,14,98,14c-1.2,0-2.7-0.7-2.7-2.9V10c0-2.1,1.6-2.9,2.7-2.9c0.7,0,1.4,0.4,1.6,0.8V7.4h1.4
			V14c0,2.3-1.7,2.9-2.9,2.9c-1.1,0-2.7-0.5-2.8-2.5h1.4c0.1,0.7,0.7,1.1,1.4,1.1C99,15.5,99.6,15,99.6,14z M96.7,11.1
			c0,1,0.6,1.5,1.5,1.5c0.9,0,1.5-0.5,1.5-1.5v-1c0-1-0.6-1.5-1.5-1.5c-0.9,0-1.5,0.5-1.5,1.5V11.1z"/>
	</g>
</g>
</svg>
