<?xml version="1.0" encoding="utf-8"?>
<!-- Generator: Adobe Illustrator 19.2.0, SVG Export Plug-In . SVG Version: 6.00 Build 0)  -->
<svg version="1.1" id="Layer_1" xmlns="http://www.w3.org/2000/svg" xmlns:xlink="http://www.w3.org/1999/xlink" x="0px" y="0px"
	 viewBox="0 0 37.2 13.2" style="enable-background:new 0 0 37.2 13.2;" xml:space="preserve">
<style type="text/css">
	.st0{clip-path:url(#SVGID_2_);}
	.st1{clip-path:url(#SVGID_4_);fill:#26292A;}
	.st2{clip-path:url(#SVGID_6_);}
	.st3{clip-path:url(#SVGID_8_);fill:#26292A;}
	.st4{clip-path:url(#SVGID_10_);}
	.st5{clip-path:url(#SVGID_12_);fill:#26292A;}
	.st6{clip-path:url(#SVGID_14_);}
	.st7{clip-path:url(#SVGID_16_);fill:#26292A;}
	.st8{clip-path:url(#SVGID_18_);}
	.st9{clip-path:url(#SVGID_20_);enable-background:new    ;}
	.st10{clip-path:url(#SVGID_22_);}
	.st11{clip-path:url(#SVGID_24_);}
	.st12{clip-path:url(#SVGID_26_);fill:#26292A;}
	.st13{clip-path:url(#SVGID_28_);}
	.st14{clip-path:url(#SVGID_30_);fill:#26292A;}
</style>
<g>
	<defs>
		<rect id="SVGID_1_" y="0.3" width="4.6" height="12.9"/>
	</defs>
	<clipPath id="SVGID_2_">
		<use xlink:href="#SVGID_1_"  style="overflow:visible;"/>
	</clipPath>
	<g class="st0">
		<defs>
			<rect id="SVGID_3_" x="-48.2" y="-1290.5" width="215" height="1426.1"/>
		</defs>
		<clipPath id="SVGID_4_">
			<use xlink:href="#SVGID_3_"  style="overflow:visible;"/>
		</clipPath>
		<rect x="-2.9" y="-2.6" class="st1" width="10.3" height="18.6"/>
	</g>
</g>
<g>
	<defs>
		<rect id="SVGID_5_" x="13.1" y="0.3" width="4.6" height="12.9"/>
	</defs>
	<clipPath id="SVGID_6_">
		<use xlink:href="#SVGID_5_"  style="overflow:visible;"/>
	</clipPath>
	<g class="st2">
		<defs>
			<rect id="SVGID_7_" x="-48.2" y="-1290.5" width="215" height="1426.1"/>
		</defs>
		<clipPath id="SVGID_8_">
			<use xlink:href="#SVGID_7_"  style="overflow:visible;"/>
		</clipPath>
		<rect x="10.2" y="-2.6" class="st3" width="10.3" height="18.6"/>
	</g>
</g>
<g>
	<defs>
		<rect id="SVGID_9_" x="23.4" y="0.3" width="4.6" height="12.9"/>
	</defs>
	<clipPath id="SVGID_10_">
		<use xlink:href="#SVGID_9_"  style="overflow:visible;"/>
	</clipPath>
	<g class="st4">
		<defs>
			<rect id="SVGID_11_" x="-48.2" y="-1290.5" width="215" height="1426.1"/>
		</defs>
		<clipPath id="SVGID_12_">
			<use xlink:href="#SVGID_11_"  style="overflow:visible;"/>
		</clipPath>
		<rect x="20.5" y="-2.6" class="st5" width="10.3" height="18.6"/>
	</g>
</g>
<g>
	<defs>
		<path id="SVGID_13_" d="M20.5,0c-1.4,0-2.6,1.1-2.6,2.6s1.1,2.6,2.6,2.6c1.4,0,2.6-1.2,2.6-2.6C23.1,1.1,21.9,0,20.5,0"/>
	</defs>
	<clipPath id="SVGID_14_">
		<use xlink:href="#SVGID_13_"  style="overflow:visible;"/>
	</clipPath>
	<g class="st6">
		<defs>
			<rect id="SVGID_15_" x="-48.2" y="-1290.5" width="215" height="1426.1"/>
		</defs>
		<clipPath id="SVGID_16_">
			<use xlink:href="#SVGID_15_"  style="overflow:visible;"/>
		</clipPath>
		<rect x="15" y="-2.9" class="st7" width="10.9" height="10.9"/>
	</g>
</g>
<g>
	<defs>
		<polyline id="SVGID_17_" points="0,0 37.2,0 37.2,13.2 0,13.2 		"/>
	</defs>
	<clipPath id="SVGID_18_">
		<use xlink:href="#SVGID_17_"  style="overflow:visible;"/>
	</clipPath>
	<g class="st8">
		<defs>
			<rect id="SVGID_19_" x="-48.2" y="-1290.5" width="215" height="1426.1"/>
		</defs>
		<clipPath id="SVGID_20_">
			<use xlink:href="#SVGID_19_"  style="overflow:visible;"/>
		</clipPath>
		<g class="st9">
			<g>
				<defs>
					<rect id="SVGID_21_" x="4.6" y="0.3" width="32.7" height="13.2"/>
				</defs>
				<clipPath id="SVGID_22_">
					<use xlink:href="#SVGID_21_"  style="overflow:visible;"/>
				</clipPath>
				<g class="st10">
					<defs>
						<path id="SVGID_23_" d="M33.6,7.3c-0.3-0.5-0.3-0.7,0-1.2l3.6-5.8h-5c0,0-3,4.8-3.5,5.5c-0.4,0.7-0.4,1.1,0,1.8
							c0.4,0.7,3.4,5.5,3.4,5.5h5C37.2,13.1,33.7,7.3,33.6,7.3"/>
					</defs>
					<clipPath id="SVGID_24_">
						<use xlink:href="#SVGID_23_"  style="overflow:visible;"/>
					</clipPath>
					<g class="st11">
						<defs>
							<rect id="SVGID_25_" y="-0.3" width="37.3" height="13.8"/>
						</defs>
						<clipPath id="SVGID_26_">
							<use xlink:href="#SVGID_25_"  style="overflow:visible;"/>
						</clipPath>
						<rect x="25.6" y="-2.6" class="st12" width="14.5" height="18.5"/>
					</g>
				</g>
				<g class="st10">
					<defs>
						<path id="SVGID_27_" d="M10.3,2.3c-0.3-1.2-1.3-2-2.5-2H4.8l2.9,12.9h5L10.3,2.3z"/>
					</defs>
					<clipPath id="SVGID_28_">
						<use xlink:href="#SVGID_27_"  style="overflow:visible;"/>
					</clipPath>
					<g class="st13">
						<defs>
							<rect id="SVGID_29_" y="-0.3" width="37.3" height="13.8"/>
						</defs>
						<clipPath id="SVGID_30_">
							<use xlink:href="#SVGID_29_"  style="overflow:visible;"/>
						</clipPath>
						<rect x="2" y="-2.6" class="st14" width="13.7" height="18.6"/>
					</g>
				</g>
			</g>
		</g>
	</g>
</g>
</svg>
