<?xml version="1.0" encoding="utf-8"?>
<!-- Generator: Adobe Illustrator 19.0.0, SVG Export Plug-In . SVG Version: 6.00 Build 0)  -->
<svg version="1.1" id="Layer_1" xmlns="http://www.w3.org/2000/svg" xmlns:xlink="http://www.w3.org/1999/xlink" x="0px" y="0px"
	 viewBox="-280 372 50 50" style="enable-background:new -280 372 50 50;" xml:space="preserve">
<style type="text/css">
	.st0{fill:#FFFFFF;}
</style>
<circle cx="-255" cy="397" r="25"/>
<g>
	<path class="st0" d="M-239.7,404.6c-0.9-0.9-2.2-2.8-2.2-2.8c1.2-0.3,2.3-1,3.2-1.8c1.4-1.4,2.1-3.3,2.1-5.4c0-2.2-0.9-4.1-2.5-5.4
		c-1.5-1.2-3.4-1.8-5.5-1.8h-3.6c-3.3,0-6,2.7-6.1,6.1v15h4v-4.2c0-1.1,0.9-2,2-2h1.6l0,0l4.3,5.3l0.3,0.4c0.3,0.3,0.8,0.5,1.2,0.6
		v0h0.1c0,0,0.1,0,0.1,0c0,0,0.1,0,0.1,0h2.4l0-3.3C-237.9,405.2-238.9,405.4-239.7,404.6z M-244.2,398.1h-3.9c-0.7,0-1.4,0.3-2,0.5
		v-5.2c0-1.1,0.9-2,2-2l3.6,0c1.3,0,2.3,0.4,2.9,0.9c0.6,0.5,1,1.2,1,2.3c0,1.2-0.4,2-0.9,2.6C-242.2,397.7-243,398.1-244.2,398.1z"
		/>
	<path class="st0" d="M-257,394.3"/>
	<path class="st0" d="M-256.8,388.1h-4l0,6.5c-0.1,2.4-2.4,3.2-4.2,3.2c-2.1,0-4.3-1.2-4.3-4.3l0-5.4h-3.9l0,5.4
		c0,2.5,0.9,4.6,2.5,6.1c1.5,1.4,3.5,2.1,5.6,2.2v0c0,0,0.1,0,0.1,0s0.1,0,0.1,0v0c1.5,0,3.6-1,4-1.8l0,1.8c0,2.4-3,3.9-3.8,4.3
		l0.1,0.1c0,0,0,0-0.1,0l2.5,3.1c1.5-0.9,5.3-2.6,5.3-8V388.1z"/>
</g>
</svg>
