<?xml version="1.0" encoding="utf-8"?>
<!-- Generator: Adobe Illustrator 19.2.0, SVG Export Plug-In . SVG Version: 6.00 Build 0)  -->
<svg version="1.1" id="Layer_1" xmlns="http://www.w3.org/2000/svg" xmlns:xlink="http://www.w3.org/1999/xlink" x="0px" y="0px"
	 viewBox="0 0 50 50" style="enable-background:new 0 0 50 50;" xml:space="preserve">
<style type="text/css">
	.st0{fill:#FFFFFF;}
</style>
<g>
	<path class="st0" d="M40.3,32.6c-0.9-0.9-2.2-2.8-2.2-2.8c1.2-0.3,2.3-1,3.1-1.8c1.4-1.4,2.1-3.3,2.1-5.4c0-2.2-0.9-4.1-2.4-5.4
		s-3.4-1.8-5.5-1.8h-3.6c-3.4,0-6,2.7-6,6v15h4.1v-4.2c0-1.1,0.9-2,2-2h1.6l0,0l4.4,5.3l0.3,0.4c0.3,0.3,0.8,0.5,1.2,0.6l0,0h0.1
		h0.1h0.1h2.4v-3.3C42,33.2,41.1,33.4,40.3,32.6z M35.8,26.1h-3.9c-0.7,0-1.4,0.3-2,0.5v-5.2c0-1.1,0.9-2,2-2h3.6
		c1.3,0,2.3,0.4,2.9,0.9c0.6,0.5,1,1.1,1,2.3s-0.4,2-0.9,2.6C37.8,25.8,37,26.1,35.8,26.1z"/>
	<path class="st0" d="M23,22.3"/>
	<path class="st0" d="M23.2,16.1h-4v6.5c-0.1,2.4-2.4,3.2-4.2,3.2c-2.1,0-4.3-1.2-4.3-4.4V16H6.8v5.4c0,2.5,0.8,4.6,2.5,6.1
		c1.5,1.4,3.5,2.1,5.7,2.2l0,0h0.1h0.1l0,0c1.5,0,3.6-1,4.1-1.8v1.8c0,2.4-3,3.9-3.8,4.4l0.1,0.1c0,0,0,0-0.1,0l2.5,3.1
		c1.5-0.8,5.3-2.6,5.4-8L23.2,16.1L23.2,16.1z"/>
</g>
</svg>
